<?xml version="1.0" encoding="utf-8"?>
<!-- Generator: Adobe Illustrator 20.1.0, SVG Export Plug-In . SVG Version: 6.00 Build 0)  -->
<svg version="1.1" id="Layer_1" xmlns="http://www.w3.org/2000/svg" xmlns:xlink="http://www.w3.org/1999/xlink" x="0px" y="0px"
	 viewBox="0 0 36 36" style="enable-background:new 0 0 36 36;" xml:space="preserve">
<style type="text/css">
	.st0{fill:#689F38;}
	.st1{fill:#565656;}
</style>
<title>plus</title>
<g id="Layer_2">
	<g id="design">
		<path class="st0" d="M24,16.5h-4.5V12c0-0.8-0.7-1.5-1.5-1.5s-1.5,0.7-1.5,1.5v4.5H12c-0.8,0-1.5,0.7-1.5,1.5s0.7,1.5,1.5,1.5h4.5
			V24c0,0.8,0.7,1.5,1.5,1.5s1.5-0.7,1.5-1.5v-4.5H24c0.8,0,1.5-0.7,1.5-1.5S24.8,16.5,24,16.5z"/>
		<path class="st1" d="M27,3h-3c-0.8,0-1.5,0.7-1.5,1.5S23.2,6,24,6h3c1.7,0,3,1.3,3,3v3c0,0.8,0.7,1.5,1.5,1.5S33,12.8,33,12V9
			C33,5.7,30.3,3,27,3z"/>
		<path class="st1" d="M12,3H9C5.7,3,3,5.7,3,9v3c0,0.8,0.7,1.5,1.5,1.5S6,12.8,6,12V9c0-1.7,1.3-3,3-3h3c0.8,0,1.5-0.7,1.5-1.5
			S12.8,3,12,3z"/>
		<path class="st1" d="M31.5,22.5c-0.8,0-1.5,0.7-1.5,1.5v3c0,1.7-1.3,3-3,3h-3c-0.8,0-1.5,0.7-1.5,1.5S23.2,33,24,33h3
			c3.3,0,6-2.7,6-6v-3C33,23.2,32.3,22.5,31.5,22.5z"/>
		<path class="st1" d="M12,30H9c-1.7,0-3-1.3-3-3v-3c0-0.8-0.7-1.5-1.5-1.5S3,23.2,3,24v3c0,3.3,2.7,6,6,6h3c0.8,0,1.5-0.7,1.5-1.5
			S12.8,30,12,30z"/>
	</g>
</g>
</svg>
